# xmcd
#
# Track frame offsets:
#	150
#	17907
#	38577
#	54802
#	79035
#	91717
#	109695
#	145650
#	165265
#	182972
#	200092
#	221042
#	243137
#	259412
#	275472
#
# Disc length: 3929 seconds
#
# Revision: 0
# Processed by: cddbd v1.5.2PL0 Copyright (c) Steve Scherf et al.
# Submitted via: audiograbber 1.83.01
#
DISCID=c40f570f
DTITLE=Various Artist - The Very Best of Rock 1984-86 2-2
DYEAR=1996
DGENRE=Rock
TTITLE0=Cars - Drive
TTITLE1=Mr. Mister - Broken Wings
TTITLE2=Marillion - Kayliegh
TTITLE3=Hall and Oates - Method Of Modern Love
TTITLE4=David Lee Roth - California Girl
TTITLE5=Status Quo - Rollin' Home
TTITLE6=Stevie Ray Vaughan - Woodoo Chile
TTITLE7=Dio - Rock'NRoll Children
TTITLE8=Rick Springfield - Celebrate Youth
TTITLE9=Christine McVie - Got A Hold On Me
TTITLE10=Frida - Shine
TTITLE11=Billy Squier - Rock Me Together
TTITLE12=Quiet Riot - Mama Weer All Crazee
TTITLE13=ZZ Top - Stages
TTITLE14=Gary Moore - Out In The Fields
EXTD=
EXTT0=
EXTT1=
EXTT2=
EXTT3=
EXTT4=
EXTT5=
EXTT6=
EXTT7=
EXTT8=
EXTT9=
EXTT10=
EXTT11=
EXTT12=
EXTT13=
EXTT14=
PLAYORDER=
